
<svg width="400" height="400" viewBox="0 0 400 400" fill="none" xmlns="http://www.w3.org/2000/svg">
<rect width="400" height="400" rx="25" fill="black"/>
<path d="M63.4844 307.24C62.1172 301.544 62.1172 295.049 63.4844 287.758C65.0794 280.238 67.2441 272.719 69.9785 265.199C72.7129 257.68 75.6751 250.502 78.8652 243.666C82.0553 236.602 84.6758 230.792 86.7266 226.234C87.8659 223.5 89.5749 219.512 91.8535 214.271C94.36 209.031 97.0944 203.106 100.057 196.498C103.247 189.89 106.437 182.94 109.627 175.648C113.045 168.357 116.235 161.407 119.197 154.799C122.387 148.191 125.122 142.38 127.4 137.367C129.907 132.126 131.73 128.253 132.869 125.746C128.995 125.062 123.413 125.404 116.121 126.771C109.057 128.139 101.196 129.962 92.5371 132.24C83.8783 134.291 74.9915 136.456 65.877 138.734C56.7624 141.013 48.2174 142.722 40.2422 143.861C32.4948 144.773 25.7728 144.887 20.0762 144.203C14.6074 143.292 11.1895 140.899 9.82227 137.025C11.4173 134.063 17.2279 130.645 27.2539 126.771C37.2799 122.898 50.0404 118.91 65.5352 114.809C81.2578 110.479 98.6895 106.15 117.83 101.82C137.199 97.4909 156.909 93.3893 176.961 89.5156C197.013 85.6419 216.609 82.11 235.75 78.9199C254.891 75.7298 271.98 73.1094 287.02 71.0586C302.059 69.0078 314.135 67.6406 323.25 66.957C332.592 66.2734 337.492 66.5013 337.947 67.6406C338.631 69.4635 338.745 71.7422 338.289 74.4766C337.833 76.9831 336.352 78.5781 333.846 79.2617C322.68 81.0846 310.604 83.1354 297.615 85.4141C284.627 87.4648 271.411 89.7435 257.967 92.25C244.751 94.5286 231.762 96.9212 219.002 99.4277C206.242 101.706 194.393 103.985 183.455 106.264C176.391 107.631 169.555 111.732 162.947 118.568C156.339 125.404 149.959 133.949 143.807 144.203C137.654 154.229 131.73 165.508 126.033 178.041C120.337 190.346 114.868 202.878 109.627 215.639C104.614 228.399 99.9427 240.704 95.6133 252.553C91.2839 264.402 87.2962 274.883 83.6504 283.998C80.0046 292.885 76.8145 299.835 74.0801 304.848C71.3457 309.861 69.0671 311.911 67.2441 311C66.7884 310.544 66.1048 309.861 65.1934 308.949C64.2819 308.038 63.7122 307.468 63.4844 307.24ZM341.365 303.139C332.706 297.214 326.44 289.923 322.566 281.264C318.693 272.377 315.844 262.921 314.021 252.895H310.262C291.805 267.934 275.74 279.213 262.068 286.732C248.624 294.252 237.231 298.923 227.889 300.746C218.546 302.341 211.255 301.544 206.014 298.354C200.773 295.163 197.355 290.606 195.76 284.682C194.393 278.529 194.734 271.352 196.785 263.148C198.836 254.945 202.368 246.742 207.381 238.539C212.394 230.108 218.888 222.133 226.863 214.613C234.839 207.094 243.953 200.941 254.207 196.156C264.689 191.371 276.196 188.409 288.729 187.27C301.489 185.902 315.161 187.27 329.744 191.371L333.504 187.27L379.646 94.6426C385.799 95.554 389.445 98.2884 390.584 102.846C391.723 107.403 391.609 112.416 390.242 117.885C389.103 123.354 387.28 128.708 384.773 133.949C382.495 138.962 380.786 142.608 379.646 144.887C378.963 146.254 377.596 148.874 375.545 152.748C373.722 156.622 371.443 161.293 368.709 166.762C366.202 172.003 363.468 177.585 360.506 183.51C357.544 189.434 354.695 195.131 351.961 200.6C349.454 205.84 347.176 210.512 345.125 214.613C343.074 218.487 341.821 220.993 341.365 222.133C337.264 230.564 335.327 239.564 335.555 249.135C336.01 258.477 336.58 267.478 337.264 276.137C338.175 280.238 339.998 283.656 342.732 286.391C345.467 288.897 348.315 291.29 351.277 293.568C354.467 295.619 357.544 297.67 360.506 299.721C363.696 301.771 366.316 304.278 368.367 307.24C367.456 310.202 365.633 311.684 362.898 311.684C360.164 311.911 357.316 311.456 354.354 310.316C351.391 309.177 348.657 307.81 346.15 306.215C343.644 304.62 342.049 303.594 341.365 303.139ZM213.875 287.758C214.786 291.632 218.204 292.771 224.129 291.176C230.281 289.581 237.459 286.277 245.662 281.264C253.865 276.023 262.524 269.757 271.639 262.465C280.981 255.173 289.298 247.882 296.59 240.59C304.109 233.298 309.92 226.576 314.021 220.424C318.351 214.271 319.718 209.714 318.123 206.752C311.059 202.878 303.198 200.941 294.539 200.941C285.88 200.941 277.221 202.536 268.562 205.727C260.132 208.689 251.928 213.018 243.953 218.715C236.206 224.184 229.598 230.564 224.129 237.855C218.888 245.147 215.128 253.122 212.85 261.781C210.799 270.212 211.141 278.871 213.875 287.758Z" fill="white"/>
<path d="M63.4844 307.24L57.6501 308.64L58.045 310.286L59.2417 311.483L63.4844 307.24ZM63.4844 287.758L57.615 286.513L57.6002 286.582L57.5871 286.652L63.4844 287.758ZM78.8652 243.666L84.3023 246.203L84.3181 246.17L84.3335 246.136L78.8652 243.666ZM86.7266 226.234L92.1981 228.697L92.2326 228.62L92.265 228.542L86.7266 226.234ZM91.8535 214.271L86.4407 211.683L86.3941 211.78L86.3511 211.879L91.8535 214.271ZM100.057 196.498L94.6533 193.89L94.6164 193.966L94.5816 194.044L100.057 196.498ZM109.627 175.648L104.194 173.102L104.161 173.172L104.13 173.244L109.627 175.648ZM119.197 154.799L113.794 152.19L113.757 152.267L113.722 152.344L119.197 154.799ZM127.4 137.367L121.988 134.778L121.962 134.831L121.938 134.884L127.4 137.367ZM132.869 125.746L138.331 128.229L141.534 121.183L133.912 119.837L132.869 125.746ZM116.121 126.771L115.015 120.874L114.998 120.877L114.981 120.881L116.121 126.771ZM92.5371 132.24L93.9199 138.079L93.9922 138.062L94.0641 138.043L92.5371 132.24ZM40.2422 143.861L40.9432 149.82L41.0171 149.812L41.0907 149.801L40.2422 143.861ZM20.0762 144.203L19.0898 150.121L19.2251 150.144L19.3613 150.16L20.0762 144.203ZM9.82227 137.025L4.53944 134.181L3.28064 136.519L4.16432 139.022L9.82227 137.025ZM65.5352 114.809L67.0705 120.609L67.0993 120.601L67.128 120.593L65.5352 114.809ZM117.83 101.82L116.521 95.9648L116.514 95.9665L116.506 95.9681L117.83 101.82ZM323.25 66.957L322.812 60.973L322.801 60.9738L323.25 66.957ZM337.947 67.6406L343.565 65.5339L343.542 65.4728L343.518 65.4123L337.947 67.6406ZM338.289 74.4766L344.192 75.5499L344.2 75.5065L344.207 75.463L338.289 74.4766ZM333.846 79.2617L334.812 85.1833L335.122 85.1328L335.424 85.0503L333.846 79.2617ZM297.615 85.4141L298.551 91.3406L298.602 91.3327L298.652 91.3238L297.615 85.4141ZM257.967 92.25L258.986 98.1628L259.026 98.1558L259.066 98.1484L257.967 92.25ZM219.002 99.4277L220.057 105.334L220.108 105.325L220.158 105.315L219.002 99.4277ZM183.455 106.264L184.595 112.154L184.637 112.146L184.679 112.138L183.455 106.264ZM143.807 144.203L148.921 147.341L148.936 147.316L148.952 147.29L143.807 144.203ZM126.033 178.041L131.478 180.562L131.487 180.543L131.495 180.524L126.033 178.041ZM109.627 215.639L104.077 213.359L104.059 213.402L104.042 213.445L109.627 215.639ZM83.6504 283.998L89.2014 286.275L89.2114 286.251L89.2213 286.226L83.6504 283.998ZM74.0801 304.848L68.8127 301.975L74.0801 304.848ZM67.2441 311L63.0015 315.243L63.69 315.931L64.5609 316.367L67.2441 311ZM69.3187 305.84C68.1938 301.153 68.1301 295.538 69.3816 288.864L57.5871 286.652C56.1043 294.561 56.0406 301.934 57.6501 308.64L69.3187 305.84ZM69.3538 289.003C70.8885 281.768 72.9746 274.517 75.6173 267.25L64.3398 263.149C61.5137 270.92 59.2704 278.709 57.615 286.513L69.3538 289.003ZM75.6173 267.25C78.2952 259.885 81.1909 252.871 84.3023 246.203L73.4281 241.129C70.1594 248.133 67.1306 255.474 64.3398 263.149L75.6173 267.25ZM84.3335 246.136C87.5241 239.07 90.1458 233.257 92.1981 228.697L81.255 223.772C79.2058 228.326 76.5865 234.134 73.397 241.196L84.3335 246.136ZM92.265 228.542C93.3863 225.851 95.0805 221.897 97.3559 216.664L86.3511 211.879C84.0692 217.127 82.3455 221.149 81.1881 223.927L92.265 228.542ZM97.2663 216.86C99.7986 211.566 102.554 205.595 105.532 198.952L94.5816 194.044C91.6349 200.617 88.9215 206.496 86.4407 211.683L97.2663 216.86ZM105.46 199.107C108.685 192.426 111.906 185.408 115.124 178.053L104.13 173.244C100.967 180.472 97.8084 187.354 94.6533 193.89L105.46 199.107ZM115.06 178.195C118.49 170.876 121.695 163.895 124.672 157.253L113.722 152.344C110.775 158.919 107.599 165.837 104.194 173.102L115.06 178.195ZM124.601 157.407C127.805 150.77 130.56 144.916 132.863 139.85L121.938 134.884C119.684 139.844 116.97 145.611 113.794 152.19L124.601 157.407ZM132.813 139.956C135.322 134.709 137.166 130.792 138.331 128.229L127.407 123.263C126.293 125.714 124.491 129.543 121.988 134.778L132.813 139.956ZM133.912 119.837C128.949 118.962 122.502 119.47 115.015 120.874L117.227 132.669C124.323 131.338 129.042 131.163 131.826 131.655L133.912 119.837ZM114.981 120.881C107.761 122.278 99.7675 124.133 91.0101 126.438L94.0641 138.043C102.624 135.79 110.354 133.999 117.261 132.662L114.981 120.881ZM91.1543 126.402C82.47 128.459 73.5591 130.629 64.4217 132.914L67.3322 144.555C76.424 142.282 85.2865 140.123 93.9199 138.079L91.1543 126.402ZM64.4217 132.914C55.4753 135.15 47.1346 136.816 39.3937 137.922L41.0907 149.801C49.3003 148.628 58.0495 146.876 67.3322 144.555L64.4217 132.914ZM39.5411 137.902C32.1082 138.777 25.8836 138.857 20.791 138.246L19.3613 150.16C25.662 150.916 32.8814 150.769 40.9432 149.82L39.5411 137.902ZM21.0626 138.285C16.8876 137.589 15.8699 136.133 15.4802 135.028L4.16432 139.022C6.50903 145.666 12.3272 148.994 19.0898 150.121L21.0626 138.285ZM15.1051 139.87C15.0773 139.922 15.682 139.022 18.4186 137.412C20.928 135.936 24.5514 134.248 29.4163 132.368L25.0915 121.175C19.9303 123.169 15.6355 125.127 12.3343 127.069C9.26035 128.877 6.16227 131.167 4.53944 134.181L15.1051 139.87ZM29.4163 132.368C39.1641 128.602 51.696 124.679 67.0705 120.609L63.9998 109.008C48.3847 113.142 35.3958 117.194 25.0915 121.175L29.4163 132.368ZM67.128 120.593C82.7458 116.293 100.086 111.985 119.154 107.672L116.506 95.9681C97.2929 100.314 79.7698 104.666 63.9423 109.024L67.128 120.593ZM119.139 107.676C138.449 103.359 158.102 99.2697 178.099 95.4067L175.823 83.6245C155.715 87.509 135.948 91.6223 116.521 95.9648L119.139 107.676ZM178.099 95.4067C198.103 91.5422 217.649 88.0195 236.736 84.8383L234.764 73.0016C215.57 76.2005 195.923 79.7416 175.823 83.6245L178.099 95.4067ZM236.736 84.8383C255.834 81.6554 272.863 79.0445 287.83 77.0036L286.209 65.1136C271.098 67.1742 253.948 69.8042 234.764 73.0016L236.736 84.8383ZM287.83 77.0036C302.816 74.96 314.758 73.6108 323.699 72.9402L322.801 60.9738C313.513 61.6705 301.301 63.0556 286.209 65.1136L287.83 77.0036ZM323.688 72.941C328.294 72.604 331.568 72.5118 333.652 72.6088C334.157 72.6322 334.549 72.6651 334.843 72.7005C334.988 72.7179 335.098 72.7346 335.177 72.7485C335.257 72.7626 335.291 72.7714 335.288 72.7705C335.287 72.7703 335.222 72.754 335.111 72.7123C335.005 72.6721 334.804 72.5894 334.551 72.4422C334.12 72.1914 333.005 71.4397 332.376 69.869L343.518 65.4123C342.776 63.5568 341.408 62.5486 340.585 62.07C339.729 61.5717 338.879 61.3024 338.257 61.1435C337.002 60.8231 335.581 60.6855 334.21 60.6217C331.395 60.4908 327.549 60.6264 322.812 60.973L323.688 72.941ZM332.329 69.7474C332.519 70.252 332.723 71.3792 332.371 73.4902L344.207 75.463C344.767 72.1051 344.743 68.6751 343.565 65.5339L332.329 69.7474ZM332.386 73.4032C332.354 73.5773 332.323 73.6382 332.33 73.6235C332.333 73.6166 332.343 73.5957 332.363 73.5657C332.384 73.5355 332.409 73.5026 332.44 73.47C332.47 73.4375 332.499 73.4117 332.523 73.3929C332.546 73.3744 332.559 73.3671 332.556 73.3687C332.551 73.3718 332.468 73.4184 332.267 73.4731L335.424 85.0503C337.547 84.4715 339.595 83.4001 341.233 81.6354C342.878 79.8645 343.795 77.734 344.192 75.5499L332.386 73.4032ZM332.879 73.3401C321.687 75.1674 309.586 77.2222 296.578 79.5043L298.652 91.3238C311.621 89.0486 323.674 87.0019 334.812 85.1833L332.879 73.3401ZM296.679 79.4875C283.634 81.5472 270.363 83.8354 256.867 86.3516L259.066 98.1484C272.458 95.6516 285.62 93.3824 298.551 91.3406L296.679 79.4875ZM256.947 86.3372C243.687 88.6235 230.653 91.0245 217.845 93.5402L220.158 105.315C232.872 102.818 245.814 100.434 258.986 98.1628L256.947 86.3372ZM217.947 93.5212C205.139 95.8083 193.233 98.0978 182.231 100.39L184.679 112.138C195.552 109.872 207.344 107.604 220.057 105.334L217.947 93.5212ZM182.315 100.373C173.707 102.039 165.826 106.958 158.633 114.398L167.261 122.738C173.285 116.507 179.075 113.223 184.595 112.154L182.315 100.373ZM158.633 114.398C151.639 121.634 144.992 130.566 138.662 141.116L148.952 147.29C154.926 137.332 161.039 129.175 167.261 122.738L158.633 114.398ZM138.693 141.065C132.391 151.334 126.353 162.837 120.571 175.558L131.495 180.524C137.106 168.18 142.917 157.124 148.921 147.341L138.693 141.065ZM120.588 175.52C114.854 187.906 109.35 200.519 104.077 213.359L115.177 217.918C120.385 205.238 125.819 192.785 131.478 180.562L120.588 175.52ZM104.042 213.445C99.0133 226.246 94.3249 238.596 89.9777 250.494L101.249 254.612C105.56 242.812 110.215 230.552 115.211 217.833L104.042 213.445ZM89.9777 250.494C85.6635 262.301 81.6977 272.724 78.0795 281.77L89.2213 286.226C92.8948 277.043 96.9042 266.503 101.249 254.612L89.9777 250.494ZM78.0994 281.721C74.4891 290.521 71.3948 297.241 68.8127 301.975L79.3475 307.721C82.2341 302.429 85.52 295.249 89.2014 286.275L78.0994 281.721ZM68.8127 301.975C68.2088 303.082 67.6769 303.938 67.2217 304.58C66.755 305.237 66.4439 305.562 66.3065 305.686C66.1443 305.832 66.4042 305.538 67.0909 305.347C67.4625 305.244 67.9366 305.179 68.4765 305.226C69.0208 305.274 69.5143 305.427 69.9274 305.633L64.5609 316.367C68.738 318.455 72.4374 316.312 74.3341 314.605C76.2417 312.888 77.8852 310.401 79.3475 307.721L68.8127 301.975ZM71.4868 306.757C71.1419 306.412 71.0911 306.362 70.6323 305.903C70.372 305.643 70.3657 305.636 70.0769 305.347C69.8833 305.154 70.1955 305.466 70.0014 305.272C69.864 305.135 70.0625 305.333 69.9247 305.195C69.7242 304.995 69.9694 305.24 69.7671 305.038C69.6083 304.879 69.6019 304.873 69.436 304.707L60.9507 313.192C61.2272 313.468 61.0124 313.254 61.2818 313.523C61.4841 313.725 61.2389 313.48 61.4394 313.681C61.455 313.696 61.4431 313.684 61.4587 313.7C61.4897 313.731 61.4469 313.688 61.4779 313.719C61.5089 313.75 61.4852 313.726 61.5162 313.757C61.565 313.806 61.5053 313.746 61.554 313.795C61.5556 313.797 61.5572 313.798 61.5587 313.8C61.5603 313.801 61.5619 313.803 61.5635 313.805C61.565 313.806 61.5666 313.808 61.5682 313.809C61.5697 313.811 61.5713 313.812 61.5729 313.814C61.5835 313.825 61.5716 313.813 61.5822 313.823C61.5826 313.824 61.5912 313.832 61.5916 313.833C61.7853 314.026 61.5466 313.788 61.7385 313.98C61.819 314.06 61.7298 313.971 61.8099 314.051C61.8499 314.091 61.8052 314.046 61.8451 314.086C61.8733 314.114 61.8519 314.093 61.88 314.121C61.9024 314.144 61.8749 314.116 61.8973 314.138C61.9057 314.147 61.9062 314.147 61.9145 314.156C61.9284 314.17 61.9092 314.15 61.9231 314.164C61.9314 314.173 61.9234 314.165 61.9317 314.173C61.9344 314.176 61.946 314.187 61.9487 314.19C62.0057 314.247 61.9596 314.201 62.0162 314.257C62.1294 314.371 62.0356 314.277 62.147 314.388C62.194 314.435 62.3528 314.594 62.3927 314.634C62.532 314.773 62.37 314.611 62.5075 314.749C62.5534 314.795 62.4896 314.731 62.5354 314.777C62.5357 314.777 62.542 314.783 62.5423 314.783C62.5491 314.79 62.5423 314.783 62.5492 314.79C62.5503 314.791 62.5549 314.796 62.5561 314.797C62.5572 314.798 62.5583 314.799 62.5595 314.801C62.5606 314.802 62.5618 314.803 62.5629 314.804C62.5835 314.825 62.5968 314.838 62.617 314.858C62.8699 315.111 62.5741 314.815 62.8199 315.061C62.8521 315.093 62.883 315.124 62.9134 315.155C62.9143 315.155 62.9153 315.156 62.9162 315.157C62.9172 315.158 62.9181 315.159 62.919 315.16C62.92 315.161 62.9209 315.162 62.9219 315.163C62.9228 315.164 62.9237 315.165 62.9247 315.166C62.9322 315.173 62.9228 315.164 62.9303 315.171C62.931 315.172 62.9352 315.176 62.9359 315.177C62.9387 315.18 62.9443 315.185 62.9471 315.188C62.948 315.189 62.9489 315.19 62.9498 315.191C62.9507 315.192 62.9517 315.193 62.9526 315.194C62.9563 315.197 62.9544 315.196 62.9581 315.199C63.0084 315.249 62.9517 315.193 63.0015 315.243L71.4868 306.757ZM69.436 304.707C69.3608 304.631 69.4261 304.697 69.3516 304.622C69.317 304.588 69.3029 304.574 69.2691 304.54C69.1927 304.463 69.2644 304.535 69.1887 304.459C69.1558 304.426 69.1424 304.413 69.1102 304.381C69.0553 304.326 69.0116 304.282 68.9594 304.23C68.8474 304.118 68.9258 304.196 68.8165 304.087C68.6503 303.921 68.4487 303.719 68.3252 303.596C68.2813 303.552 68.2635 303.534 68.2224 303.493C68.2064 303.477 68.2137 303.484 68.1979 303.468C68.1879 303.458 68.1838 303.454 68.174 303.445C68.173 303.444 68.172 303.443 68.171 303.442C68.17 303.441 68.169 303.44 68.168 303.439C68.1632 303.434 68.167 303.438 68.1622 303.433C68.1597 303.43 68.1587 303.429 68.1563 303.427C68.1554 303.426 68.1544 303.425 68.1534 303.424C68.1524 303.423 68.1515 303.422 68.1505 303.421C68.1495 303.42 68.1486 303.419 68.1476 303.418C68.1466 303.417 68.1457 303.416 68.1447 303.415C68.143 303.414 68.1407 303.411 68.139 303.41C68.1369 303.408 68.1296 303.4 68.1276 303.398C68.0733 303.344 68.0056 303.276 67.962 303.233C67.8928 303.163 67.887 303.158 67.8285 303.099C67.7994 303.07 67.7454 303.016 67.727 302.998L59.2417 311.483C59.3066 311.548 60.2023 312.443 60.9507 313.192L69.436 304.707ZM341.365 303.139L337.977 308.091L338.007 308.111L338.037 308.131L341.365 303.139ZM322.566 281.264L317.066 283.661L317.078 283.688L317.089 283.714L322.566 281.264ZM314.021 252.895L319.925 251.821L319.029 246.895H314.021V252.895ZM310.262 252.895V246.895H308.127L306.472 248.243L310.262 252.895ZM262.068 286.732L259.177 281.475L259.158 281.485L259.139 281.496L262.068 286.732ZM227.889 300.746L228.898 306.661L228.968 306.649L229.038 306.635L227.889 300.746ZM206.014 298.354L202.894 303.479L206.014 298.354ZM195.76 284.682L189.903 285.983L189.931 286.113L189.966 286.241L195.76 284.682ZM207.381 238.539L212.501 241.668L212.52 241.637L212.538 241.606L207.381 238.539ZM254.207 196.156L251.715 190.698L251.692 190.709L251.67 190.719L254.207 196.156ZM288.729 187.27L289.272 193.245L289.32 193.241L289.368 193.235L288.729 187.27ZM329.744 191.371L328.12 197.147L331.673 198.146L334.167 195.425L329.744 191.371ZM333.504 187.27L337.927 191.324L338.498 190.701L338.874 189.945L333.504 187.27ZM379.646 94.6426L380.526 88.7074L376.218 88.0691L374.276 91.9672L379.646 94.6426ZM390.242 117.885L384.421 116.43L384.393 116.545L384.368 116.661L390.242 117.885ZM384.773 133.949L379.361 131.36L379.335 131.413L379.311 131.466L384.773 133.949ZM379.646 144.887L374.28 142.203L379.646 144.887ZM375.545 152.748L370.242 149.941L370.176 150.066L370.116 150.193L375.545 152.748ZM368.709 166.762L363.342 164.078L363.319 164.126L363.296 164.173L368.709 166.762ZM351.961 200.6L346.594 197.916L346.571 197.963L346.548 198.011L351.961 200.6ZM345.125 214.613L350.428 217.421L350.46 217.359L350.492 217.297L345.125 214.613ZM341.365 222.133L346.761 224.758L346.856 224.563L346.936 224.361L341.365 222.133ZM335.555 249.135L329.556 249.278L329.558 249.352L329.562 249.427L335.555 249.135ZM337.264 276.137L331.282 276.609L331.315 277.028L331.407 277.438L337.264 276.137ZM342.732 286.391L338.49 290.633L338.582 290.725L338.678 290.814L342.732 286.391ZM351.277 293.568L347.619 298.324L347.82 298.478L348.033 298.615L351.277 293.568ZM360.506 299.721L357.091 304.654L357.175 304.712L357.261 304.768L360.506 299.721ZM368.367 307.24L374.102 309.005L374.959 306.22L373.3 303.825L368.367 307.24ZM362.898 311.684V305.684H362.649L362.4 305.704L362.898 311.684ZM213.875 287.758L219.716 286.384L219.669 286.187L219.61 285.993L213.875 287.758ZM224.129 291.176L222.623 285.368L222.596 285.375L222.569 285.382L224.129 291.176ZM245.662 281.264L248.791 286.383L248.842 286.352L248.892 286.32L245.662 281.264ZM271.639 262.465L267.947 257.735L267.919 257.757L267.891 257.78L271.639 262.465ZM296.59 240.59L292.413 236.282L292.38 236.315L292.347 236.347L296.59 240.59ZM314.021 220.424L309.115 216.971L309.071 217.033L309.029 217.096L314.021 220.424ZM318.123 206.752L323.406 203.907L322.564 202.345L321.008 201.491L318.123 206.752ZM268.562 205.727L270.551 211.387L270.594 211.372L270.637 211.357L268.562 205.727ZM243.953 218.715L247.413 223.617L247.427 223.607L247.441 223.597L243.953 218.715ZM224.129 237.855L219.329 234.255L219.292 234.304L219.257 234.354L224.129 237.855ZM212.85 261.781L207.047 260.254L207.033 260.309L207.02 260.363L212.85 261.781ZM344.753 298.187C336.908 292.819 331.418 286.357 328.043 278.813L317.089 283.714C321.462 293.488 328.504 301.609 337.977 308.091L344.753 298.187ZM328.067 278.866C324.387 270.425 321.669 261.415 319.925 251.821L308.118 253.968C310.02 264.426 312.998 274.329 317.066 283.661L328.067 278.866ZM314.021 246.895H310.262V258.895H314.021V246.895ZM306.472 248.243C288.165 263.159 272.413 274.196 259.177 281.475L264.96 291.99C279.068 284.23 295.444 272.708 314.052 257.546L306.472 248.243ZM259.139 281.496C245.952 288.872 235.193 293.208 226.74 294.857L229.038 306.635C239.269 304.639 251.297 299.632 264.997 291.969L259.139 281.496ZM226.879 294.832C218.219 296.31 212.618 295.349 209.133 293.228L202.894 303.479C209.891 307.738 218.873 308.372 228.898 306.661L226.879 294.832ZM209.133 293.228C205.208 290.839 202.748 287.559 201.553 283.122L189.966 286.241C191.962 293.654 196.337 299.488 202.894 303.479L209.133 293.228ZM201.617 283.38C200.509 278.393 200.708 272.198 202.606 264.604L190.964 261.693C188.761 270.505 188.276 278.666 189.903 285.983L201.617 283.38ZM202.606 264.604C204.491 257.065 207.762 249.422 212.501 241.668L202.261 235.41C196.974 244.063 193.181 252.825 190.964 261.693L202.606 264.604ZM212.538 241.606C217.235 233.706 223.363 226.16 230.979 218.979L222.747 210.248C214.413 218.106 207.553 226.51 202.224 235.473L212.538 241.606ZM230.979 218.979C238.474 211.913 247.052 206.117 256.744 201.593L251.67 190.719C240.855 195.766 231.203 202.275 222.747 210.248L230.979 218.979ZM256.699 201.614C266.511 197.135 277.351 194.329 289.272 193.245L288.185 181.294C275.041 182.489 262.867 185.607 251.715 190.698L256.699 201.614ZM289.368 193.235C301.244 191.963 314.142 193.216 328.12 197.147L331.369 185.595C316.18 181.323 301.733 179.842 288.089 181.304L289.368 193.235ZM334.167 195.425L337.927 191.324L329.081 183.215L325.321 187.317L334.167 195.425ZM338.874 189.945L385.017 97.3179L374.276 91.9672L328.133 184.594L338.874 189.945ZM378.767 100.578C381.2 100.938 382.609 101.587 383.395 102.177C384.079 102.69 384.517 103.315 384.763 104.301L396.405 101.39C395.512 97.8196 393.557 94.7982 390.595 92.577C387.736 90.4325 384.246 89.2585 380.526 88.7074L378.767 100.578ZM384.763 104.301C385.62 107.729 385.597 111.726 384.421 116.43L396.063 119.34C397.622 113.106 397.826 107.077 396.405 101.39L384.763 104.301ZM384.368 116.661C383.331 121.639 381.667 126.537 379.361 131.36L390.186 136.538C392.892 130.88 394.875 125.068 396.116 119.108L384.368 116.661ZM379.311 131.466C377.037 136.471 375.366 140.031 374.28 142.203L385.013 147.57C386.205 145.185 387.953 141.454 390.236 136.432L379.311 131.466ZM374.28 142.203C373.632 143.499 372.297 146.059 370.242 149.941L380.848 155.555C382.894 151.69 384.293 149.009 385.013 147.57L374.28 142.203ZM370.116 150.193C368.32 154.01 366.064 158.636 363.342 164.078L374.076 169.445C376.823 163.95 379.124 159.233 380.974 155.303L370.116 150.193ZM363.296 164.173C360.807 169.378 358.088 174.929 355.139 180.826L365.872 186.193C368.848 180.241 371.598 174.627 374.122 169.35L363.296 164.173ZM355.139 180.826C354.974 181.157 354.196 182.714 354.034 183.037C353.789 183.526 354.003 183.098 353.759 183.587C353.576 183.952 353.667 183.77 353.485 184.135C353.242 184.622 353.182 184.742 352.939 185.227C352.456 186.194 352.335 186.436 351.855 187.395C351.615 187.875 351.556 187.994 351.317 188.472C351.079 188.948 351.287 188.532 351.049 189.008C351.043 189.019 351.038 189.03 351.032 189.041C351.026 189.052 351.021 189.063 351.015 189.074C351.008 189.089 350.989 189.127 350.982 189.141C350.976 189.153 350.971 189.164 350.965 189.175C350.96 189.186 350.954 189.197 350.948 189.208C350.943 189.219 350.937 189.231 350.932 189.242C350.926 189.253 350.921 189.264 350.915 189.275C350.908 189.29 350.889 189.327 350.882 189.342C350.876 189.353 350.87 189.364 350.865 189.375C350.859 189.386 350.854 189.398 350.848 189.409C350.843 189.42 350.837 189.431 350.831 189.442C350.826 189.453 350.82 189.464 350.815 189.476C350.807 189.49 350.789 189.527 350.781 189.542C350.544 190.017 350.752 189.602 350.515 190.076C350.279 190.548 350.485 190.136 350.249 190.608C350.012 191.08 349.954 191.197 349.719 191.668C349.25 192.606 349.132 192.841 348.667 193.772C348.434 194.237 348.376 194.353 348.144 194.816C347.856 195.394 348.173 194.759 347.884 195.336C347.863 195.379 347.874 195.358 347.852 195.401C347.838 195.43 347.834 195.437 347.82 195.466C347.814 195.477 347.809 195.488 347.803 195.498C347.798 195.509 347.793 195.52 347.787 195.531C347.751 195.603 347.791 195.524 347.755 195.596C347.74 195.625 347.704 195.697 347.69 195.725C347.654 195.797 347.693 195.718 347.657 195.79C347.636 195.833 347.647 195.812 347.625 195.855C347.453 196.2 347.539 196.027 347.366 196.372C347.08 196.945 347.395 196.316 347.108 196.888C346.994 197.118 346.708 197.689 346.594 197.916L357.328 203.283C357.384 203.169 357.399 203.14 357.456 203.026C357.461 203.016 357.466 203.005 357.472 202.994C357.477 202.984 357.482 202.973 357.488 202.962C357.493 202.951 357.499 202.941 357.504 202.93C357.509 202.919 357.515 202.909 357.52 202.898C357.548 202.841 357.556 202.827 357.584 202.77C357.603 202.732 357.822 202.293 357.842 202.255C357.847 202.244 357.852 202.233 357.858 202.223C357.863 202.212 357.868 202.201 357.874 202.19C357.879 202.18 357.884 202.169 357.89 202.158C357.895 202.147 357.901 202.137 357.906 202.126C357.935 202.069 357.942 202.054 357.97 201.997C357.97 201.997 358.099 201.739 358.1 201.739C358.157 201.624 358.171 201.595 358.229 201.48C358.234 201.47 358.24 201.459 358.245 201.448C358.25 201.437 358.256 201.426 358.261 201.416C358.267 201.405 358.272 201.394 358.277 201.383C358.283 201.372 358.288 201.362 358.293 201.351C358.322 201.293 358.329 201.279 358.358 201.221C358.588 200.761 358.647 200.645 358.878 200.183C358.907 200.125 358.979 199.98 359.008 199.922C359.046 199.845 359.1 199.739 359.138 199.661C359.144 199.65 359.149 199.64 359.155 199.629C359.16 199.618 359.165 199.607 359.171 199.596C359.193 199.553 359.182 199.574 359.204 199.531C359.209 199.52 359.214 199.509 359.22 199.498C359.225 199.487 359.231 199.476 359.236 199.465C359.242 199.455 359.247 199.444 359.253 199.433C359.258 199.422 359.263 199.411 359.269 199.4C359.298 199.342 359.371 199.197 359.4 199.139C359.438 199.061 359.492 198.954 359.531 198.877C359.536 198.866 359.541 198.855 359.547 198.844C359.552 198.833 359.558 198.822 359.563 198.811C359.585 198.768 359.574 198.789 359.596 198.746C359.602 198.735 359.607 198.724 359.612 198.713C359.618 198.702 359.623 198.691 359.629 198.68C359.634 198.669 359.64 198.658 359.645 198.647C359.651 198.636 359.656 198.625 359.662 198.615C359.691 198.556 359.764 198.41 359.793 198.352C359.842 198.255 359.876 198.187 359.924 198.089C360.158 197.622 360.217 197.504 360.452 197.034C360.481 196.976 360.555 196.829 360.584 196.77C360.59 196.759 360.595 196.748 360.601 196.737C360.606 196.726 360.612 196.715 360.617 196.704C360.617 196.704 360.65 196.638 360.65 196.638C360.665 196.608 360.702 196.534 360.716 196.505C360.736 196.466 360.763 196.412 360.783 196.372C360.788 196.361 360.794 196.35 360.799 196.339C360.805 196.328 360.81 196.317 360.816 196.306C360.821 196.295 360.827 196.284 360.832 196.273C360.838 196.262 360.843 196.251 360.849 196.24C360.878 196.181 360.952 196.033 360.982 195.974C361.139 195.66 361.356 195.225 361.515 194.909C362.777 192.385 364.553 188.831 365.872 186.193L355.139 180.826ZM346.548 198.011C344.053 203.228 341.79 207.867 339.758 211.93L350.492 217.297C352.562 213.157 354.856 208.453 357.374 203.188L346.548 198.011ZM339.822 211.806C337.816 215.596 336.393 218.407 335.794 219.904L346.936 224.361C347.249 223.58 348.333 221.378 350.428 217.421L339.822 211.806ZM335.97 219.508C331.44 228.819 329.306 238.771 329.556 249.278L341.553 248.992C341.347 240.358 343.087 232.309 346.761 224.758L335.97 219.508ZM329.562 249.427C330.02 258.825 330.594 267.886 331.282 276.609L343.245 275.665C342.567 267.07 342.001 258.129 341.548 248.842L329.562 249.427ZM331.407 277.438C332.543 282.554 334.879 287.022 338.49 290.633L346.975 282.148C345.117 280.29 343.807 277.923 343.121 274.835L331.407 277.438ZM338.678 290.814C341.541 293.438 344.521 295.941 347.619 298.324L354.936 288.813C352.109 286.638 349.393 284.357 346.787 281.968L338.678 290.814ZM348.033 298.615C351.168 300.631 354.187 302.644 357.091 304.654L363.921 294.788C360.9 292.696 357.767 290.607 354.522 288.521L348.033 298.615ZM357.261 304.768C359.822 306.414 361.857 308.377 363.434 310.655L373.3 303.825C370.776 300.179 367.57 297.129 363.75 294.674L357.261 304.768ZM362.633 305.476C362.527 305.82 362.435 305.988 362.403 306.04C362.376 306.083 362.41 306.016 362.533 305.916C362.592 305.868 362.659 305.823 362.732 305.783C362.805 305.744 362.871 305.717 362.924 305.7C363.031 305.665 363.04 305.684 362.898 305.684V317.684C365.406 317.684 367.948 316.978 370.1 315.229C372.187 313.534 373.407 311.265 374.102 309.005L362.633 305.476ZM362.4 305.704C360.698 305.846 358.758 305.582 356.507 304.716L352.2 315.916C355.874 317.33 359.63 317.977 363.397 317.663L362.4 305.704ZM356.507 304.716C353.893 303.711 351.519 302.519 349.372 301.153L342.929 311.277C345.795 313.1 348.89 314.643 352.2 315.916L356.507 304.716ZM349.372 301.153C346.849 299.547 345.313 298.559 344.693 298.146L338.037 308.131C338.785 308.629 340.439 309.692 342.929 311.277L349.372 301.153ZM208.034 289.132C208.907 292.841 211.307 295.904 215.225 297.21C218.589 298.331 222.3 297.882 225.689 296.969L222.569 285.382C221.382 285.702 220.494 285.836 219.863 285.867C219.227 285.898 218.993 285.817 219.019 285.825C219.096 285.851 219.343 285.967 219.57 286.229C219.776 286.468 219.766 286.599 219.716 286.384L208.034 289.132ZM225.635 296.984C232.572 295.185 240.314 291.564 248.791 286.383L242.533 276.144C234.604 280.99 227.991 283.976 222.623 285.368L225.635 296.984ZM248.892 286.32C257.306 280.945 266.138 274.549 275.387 267.15L267.891 257.78C258.91 264.964 250.425 271.101 242.432 276.207L248.892 286.32ZM275.33 267.195C284.838 259.774 293.344 252.321 300.832 244.832L292.347 236.347C285.252 243.442 277.124 250.573 267.947 257.735L275.33 267.195ZM300.767 244.897C308.477 237.421 314.601 230.371 319.014 223.752L309.029 217.096C305.239 222.781 299.742 229.175 292.413 236.282L300.767 244.897ZM318.928 223.877C321.275 220.542 323.097 217.264 324.041 214.116C324.99 210.951 325.224 207.284 323.406 203.907L312.84 209.597C312.617 209.182 312.965 209.275 312.547 210.668C312.124 212.077 311.098 214.153 309.115 216.971L318.928 223.877ZM321.008 201.491C312.994 197.096 304.129 194.941 294.539 194.941V206.941C302.267 206.941 309.124 208.66 315.238 212.013L321.008 201.491ZM294.539 194.941C285.127 194.941 275.767 196.678 266.488 200.097L270.637 211.357C278.675 208.395 286.633 206.941 294.539 206.941V194.941ZM266.574 200.066C257.56 203.233 248.857 207.839 240.466 213.832L247.441 223.597C255 218.198 262.703 214.145 270.551 211.387L266.574 200.066ZM240.493 213.813C232.255 219.628 225.189 226.443 219.329 234.255L228.929 241.455C234.007 234.685 240.157 228.739 247.413 223.617L240.493 213.813ZM219.257 234.354C213.589 242.239 209.513 250.884 207.047 260.254L218.652 263.308C220.743 255.361 224.187 248.055 229.001 241.357L219.257 234.354ZM207.02 260.363C204.695 269.92 205.112 279.679 208.14 289.522L219.61 285.993C217.17 278.063 216.903 270.505 218.68 263.199L207.02 260.363Z" fill="white"/>
</svg>